<?xml version="1.0" encoding="iso-8859-1"?>
<!-- Uploaded to: SVG Repo, www.svgrepo.com, Generator: SVG Repo Mixer Tools -->
<svg height="800px" width="800px" version="1.1" id="Layer_1" xmlns="http://www.w3.org/2000/svg" xmlns:xlink="http://www.w3.org/1999/xlink" 
	 viewBox="0 0 512 512" xml:space="preserve">
<g transform="translate(1 1)">
	<path style="fill:#FFA800;" d="M255.424,7.533c-29.867,0-58.88,5.12-86.187,15.36c-5.12,5.973-12.8,11.093-22.187,12.8
		c-5.973,5.973-14.507,10.24-25.6,11.093C53.184,91.16,7.958,167.96,7.958,255c0,136.533,110.933,247.467,247.467,247.467
		S502.891,391.533,502.891,255S391.958,7.533,255.424,7.533"/>
	<path style="fill:#FFE100;" d="M242.624,7.533c-23.893,0-46.08,3.413-67.413,10.24c-5.12,9.387-14.507,16.213-27.307,17.92
		c-6.827,6.827-16.213,10.24-28.16,10.24c-0.853,0-1.707,0-3.413,0C51.478,91.16,7.958,167.96,7.958,255
		c0,136.533,104.96,247.467,234.667,247.467S477.291,391.533,477.291,255S372.331,7.533,242.624,7.533"/>
	<path style="fill:#FF8800;" d="M255.424,41.667c-89.6,0-162.133,152.747-162.133,341.333c0,20.48,0.853,40.96,2.56,61.44
		c42.667,36.693,98.987,58.027,159.573,58.027s116.053-22.187,159.573-58.027c1.707-19.627,2.56-40.107,2.56-61.44
		C417.558,194.413,345.024,41.667,255.424,41.667"/>
	<path style="fill:#FFA800;" d="M242.624,41.667C159.851,41.667,93.291,194.413,93.291,383c0,20.48,0.853,40.96,2.56,61.44
		c40.107,36.693,91.307,58.027,146.773,58.027s107.52-22.187,146.773-58.027c1.707-19.627,2.56-40.107,2.56-61.44
		C391.958,194.413,325.398,41.667,242.624,41.667"/>
	<path style="fill:#FFFFFF;" d="M255.424,502.467c2.56,0,4.267,0,6.827,0C135.104,499.053,33.558,389.827,33.558,255
		S135.104,10.947,262.251,7.533c-2.56,0-4.267,0-6.827,0C118.891,7.533,7.958,118.467,7.958,255S118.891,502.467,255.424,502.467"/>
	<path d="M357.824,101.4h-204.8l10.24-13.653c27.307-35.84,58.88-54.613,92.16-54.613s64.853,18.773,92.16,54.613L357.824,101.4z
		 M188.011,84.333h133.973C300.651,62.147,278.464,50.2,254.571,50.2S209.344,62.147,188.011,84.333z"/>
	<path d="M106.091,258.413c-2.56,0-4.267-0.853-5.973-2.56c-3.413-3.413-3.413-8.533,0-11.947L257.984,86.893
		c3.413-3.413,8.533-3.413,11.947,0s3.413,8.533,0,11.947L112.064,255.853C110.358,257.56,107.798,258.413,106.091,258.413z"/>
	<path d="M93.291,394.093c-2.56,0-4.267-0.853-5.973-2.56c-3.413-3.413-3.413-8.533,0-11.947L352.704,114.2
		c3.413-3.413,8.533-3.413,11.947,0c3.413,3.413,3.413,8.533,0,11.947L99.264,391.533C97.558,393.24,95.851,394.093,93.291,394.093z
		"/>
	<path d="M218.731,508.44c-2.56,0-4.267-0.853-5.973-2.56c-3.413-3.413-3.413-8.533,0-11.947l194.56-194.56
		c3.413-3.413,8.533-3.413,11.947,0c3.413,3.413,3.413,8.533,0,11.947l-194.56,194.56
		C222.998,507.587,221.291,508.44,218.731,508.44z"/>
	<path d="M129.984,476.867c-2.56,0-4.267-0.853-5.973-2.56c-3.413-3.413-3.413-8.533,0-11.947l263.68-263.68
		c3.413-3.413,8.533-3.413,11.947,0c3.413,3.413,3.413,8.533,0,11.947l-263.68,263.68
		C134.251,476.013,131.691,476.867,129.984,476.867z"/>
	<path d="M417.558,388.973c-2.56,0-4.267-0.853-5.973-2.56l-263.68-263.68c-3.413-3.413-3.413-8.533,0-11.947s8.533-3.413,11.947,0
		l263.68,263.68c3.413,3.413,3.413,8.533,0,11.947C421.824,388.12,420.118,388.973,417.558,388.973z"/>
	<path d="M403.904,255c-2.56,0-4.267-0.853-5.973-2.56l-153.6-153.6c-3.413-3.413-3.413-8.533,0-11.947s8.533-3.413,11.947,0
		l153.6,153.6c3.413,3.413,3.413,8.533,0,11.947C408.171,254.147,406.464,255,403.904,255z"/>
	<path d="M362.944,486.253c-2.56,0-4.267-0.853-5.973-2.56c-3.413-3.413-3.413-8.533,0-11.947l53.76-53.76
		c3.413-3.413,8.533-3.413,11.947,0c3.413,3.413,3.413,8.533,0,11.947l-53.76,53.76C367.211,485.4,365.504,486.253,362.944,486.253z
		"/>
	<path d="M382.571,476.013c-2.56,0-4.267-0.853-5.973-2.56L112.064,208.92c-3.413-3.413-3.413-8.533,0-11.947s8.533-3.413,11.947,0
		l264.533,264.533c3.413,3.413,3.413,8.533,0,11.947C386.838,475.16,385.131,476.013,382.571,476.013z"/>
	<path d="M294.678,507.587c-2.56,0-4.267-0.853-5.973-2.56L92.438,308.76c-3.413-3.413-3.413-8.533,0-11.947
		c3.413-3.413,8.533-3.413,11.947,0L300.651,493.08c3.413,3.413,3.413,8.533,0,11.947
		C298.944,506.733,296.384,507.587,294.678,507.587z"/>
	<path d="M153.024,488.813c-2.56,0-4.267-0.853-5.973-2.56l-58.88-58.88c-3.413-3.413-3.413-8.533,0-11.947
		c3.413-3.413,8.533-3.413,11.947,0l58.88,58.88c3.413,3.413,3.413,8.533,0,11.947C157.291,487.96,155.584,488.813,153.024,488.813z
		"/>
	<path d="M255.424,511c-140.8,0-256-115.2-256-256c0-86.187,42.667-165.547,114.347-213.333c4.267-2.56,9.387-1.707,11.947,2.56
		c2.56,4.267,1.707,9.387-2.56,11.947C56.598,100.547,16.491,174.787,16.491,255c0,131.413,107.52,238.933,238.933,238.933
		S494.358,386.413,494.358,255S386.838,16.067,255.424,16.067c-25.6,0-50.347,4.267-74.24,11.947
		c-4.267,1.707-9.387-0.853-11.093-5.12s0.853-9.387,5.12-11.093c25.6-8.533,52.053-12.8,79.36-12.8c140.8,0,256,115.2,256,256
		C511.424,395.8,396.224,511,255.424,511z"/>
	<path d="M153.024,33.133c0,5.12-3.413,8.533-8.533,8.533c-5.12,0-8.533-3.413-8.533-8.533s3.413-8.533,8.533-8.533
		C149.611,24.6,153.024,28.013,153.024,33.133"/>
	<path d="M255.424,511c-60.587,0-118.613-21.333-164.693-60.587l-2.56-2.56v-3.413c-2.56-19.627-3.413-40.96-3.413-61.44
		c0-196.267,75.093-349.867,170.667-349.867S426.091,186.733,426.091,383c0,20.48-0.853,41.813-2.56,61.44v3.413l-2.56,2.56
		C374.038,489.667,316.011,511,255.424,511z M104.384,440.173c42.667,34.987,96.427,53.76,151.04,53.76
		c55.467,0,108.373-18.773,151.04-53.76c1.707-18.773,2.56-37.547,2.56-57.173c0-183.467-69.12-332.8-153.6-332.8
		s-153.6,149.333-153.6,332.8C101.824,401.773,102.678,421.4,104.384,440.173z M414.998,444.44L414.998,444.44L414.998,444.44z"/>
</g>
</svg>